<?xml version="1.0" encoding="utf-8"?>
<!-- Generator: Adobe Illustrator 21.1.0, SVG Export Plug-In . SVG Version: 6.00 Build 0)  -->
<svg version="1.1" id="Camada_1" xmlns="http://www.w3.org/2000/svg" xmlns:xlink="http://www.w3.org/1999/xlink" x="0px" y="0px"
	 viewBox="0 0 147.7 22.8" style="enable-background:new 0 0 147.7 22.8;" xml:space="preserve">
<style type="text/css">
	.st0{fill:#FFFFFF;}
</style>
<g>
	<g>
		<g>
			<g>
				<path class="st0" d="M19.4,7.2l4.5,9l4.4-9H31v13.5h-2.1l0-10.1l-4.3,8.7h-1.5l-4.3-8.7v10.1h-2.1V7.2H19.4z"/>
				<path class="st0" d="M40.2,16.2v4.5h-2.3v-4.4l-5-9.1h2.3l3.9,6.6l3.8-6.6h2.3L40.2,16.2z"/>
			</g>
			<g>
				<g>
					<g>
						<path class="st0" d="M55,17.6h-6.9l-1.3,3.1h-2.4l6-13.7h2.4l6,13.7h-2.5L55,17.6z M54.1,15.6l-2.6-6.1l-2.6,6.1H54.1z"/>
						<path class="st0" d="M71.4,11.7c0,3.1-2,4.9-5.4,4.9h-3.1v4.1h-2.3V7H66C69.4,7,71.4,8.7,71.4,11.7z M69.2,11.8
							c0-1.8-1.2-2.7-3.3-2.7h-3v5.4h3C68,14.5,69.2,13.6,69.2,11.8z"/>
						<path class="st0" d="M84.5,11.7c0,3.1-2,4.9-5.4,4.9H76v4.1h-2.3V7h5.4C82.6,7,84.5,8.7,84.5,11.7z M82.3,11.8
							c0-1.8-1.2-2.7-3.3-2.7h-3v5.4h3C81.1,14.5,82.3,13.6,82.3,11.8z"/>
					</g>
				</g>
			</g>
		</g>
		<g>
			<line class="st0" x1="10.1" y1="19.8" x2="20.5" y2="19.8"/>
			<polygon class="st0" points="17.2,20.7 10.8,20.7 11.6,19 17.2,19 			"/>
		</g>
		<g>
			<g>
				<path class="st0" d="M98,10.4c0,1.5-0.9,2.7-2.4,3c1.8,0.3,2.9,1.6,2.9,3.5c0,2.3-1.9,3.8-5,3.8h-6.1V7h5.9
					C96.2,7,98,8.3,98,10.4z M95.6,10.9c0-1.1-0.9-1.8-2.3-1.8h-3.5v3.6h3.5C94.8,12.7,95.6,12,95.6,10.9z M96.2,16.7
					c0-1.2-1.1-2-2.9-1.9h-3.5v3.9h3.5C95.1,18.6,96.2,17.9,96.2,16.7z"/>
				<path class="st0" d="M114.6,13.9c0,3.9-3.2,6.9-7.2,6.9c-4.1,0-7.2-3-7.2-6.9c0-3.9,3.2-6.9,7.2-6.9
					C111.5,7,114.6,10,114.6,13.9z M102.5,13.9c0,2.7,2.2,4.9,4.9,4.9s4.9-2.1,4.9-4.9S110.1,9,107.4,9
					C104.7,9,102.5,11.1,102.5,13.9z"/>
				<path class="st0" d="M129.9,13.9c0,3.9-3.2,6.9-7.2,6.9s-7.2-3-7.2-6.9c0-3.9,3.2-6.9,7.2-6.9S129.9,10,129.9,13.9z M117.7,13.9
					c0,2.7,2.2,4.9,4.9,4.9s4.9-2.1,4.9-4.9S125.3,9,122.7,9C120,9,117.7,11.1,117.7,13.9z"/>
				<path class="st0" d="M141.5,20.7l-4.5-6l-2.3,2.6v3.5h-2.3V7h2.3v7.1l6.5-7.1h2.7l-5.3,5.8l5.6,7.8H141.5z"/>
			</g>
		</g>
		<path class="st0" d="M13,15.1c-0.1-0.4-0.4-0.7-0.8-0.9c-0.4-0.1-0.8-0.1-1.2,0l-2,0.6l0.4,1.3l2-0.6c0.1,0,0.2,0,0.3,0
			c0,0,0,0,0,0c0.1,0.3,0,0.9-0.1,1.3l-0.8,2.5l-2-1.7c-0.3-0.3-0.7-0.9-0.8-1.3L4.8,4.6c0-0.1,0-0.2,0-0.3c0-0.1,0.1-0.1,0.2-0.2
			l3-0.8c0.1,0,0.2,0,0.3,0c0.1,0,0.1,0.1,0.2,0.2l2.4,8.6l0,0.1l1.3-0.4L9.7,3.3c-0.1-0.4-0.4-0.8-0.8-1C8.5,2,8.1,2,7.6,2.1
			l-3,0.8C4.2,3,3.9,3.3,3.6,3.7C3.4,4.1,3.3,4.6,3.5,5l3.2,11.6c0.2,0.7,0.7,1.5,1.3,2l2,1.8c0.3,0.2,0.6,0.4,0.9,0.4
			c0.1,0,0.2,0,0.3,0c0.4-0.1,0.8-0.5,0.9-0.9l0.8-2.5C13.1,16.5,13.2,15.6,13,15.1z"/>
	</g>
</g>
</svg>
