<?xml version="1.0" encoding="utf-8"?>
<!-- Generator: Adobe Illustrator 22.1.0, SVG Export Plug-In . SVG Version: 6.00 Build 0)  -->
<svg version="1.1" id="Camada_1" xmlns="http://www.w3.org/2000/svg" xmlns:xlink="http://www.w3.org/1999/xlink" x="0px" y="0px"
	 viewBox="0 0 217 83.7" style="enable-background:new 0 0 217 83.7;" xml:space="preserve">
<style type="text/css">
	.st0{fill:#369869;}
	.st1{fill:#93B756;}
	.st2{fill:#4184AB;}
</style>
<g>
	<g>
		<path class="st0" d="M61.4,7.3l10.1,20.2l10-20.2h6.1v30.5h-4.7l0-22.8l-9.6,19.6h-3.4L60.1,15v22.8h-4.8V7.3H61.4z"/>
		<path class="st0" d="M108.1,27.6v10.1H103v-10L91.6,7.3h5.2l8.7,14.8L114,7.3h5.2L108.1,27.6z"/>
	</g>
	<g>
		<g>
			<g>
				<path class="st1" d="M141.5,30.8h-15.5l-2.9,7h-5.4l13.6-30.8h5.3L150,37.7h-5.5L141.5,30.8z M139.5,26.2l-5.8-13.7l-5.8,13.7
					H139.5z"/>
				<path class="st1" d="M178.5,17.5c0,7-4.4,11-12.2,11h-7.1v9.3h-5.2V6.9h12.3C174.1,6.9,178.5,10.8,178.5,17.5z M173.6,17.6
					c0-4-2.7-6-7.4-6h-6.9v12.2h6.9C170.9,23.8,173.6,21.8,173.6,17.6z"/>
				<path class="st1" d="M208.1,17.5c0,7-4.4,11-12.2,11h-7.1v9.3h-5.2V6.9H196C203.7,6.9,208.1,10.8,208.1,17.5z M203.2,17.6
					c0-4-2.7-6-7.4-6h-6.9v12.2h6.9C200.5,23.8,203.2,21.8,203.2,17.6z"/>
			</g>
		</g>
	</g>
	<g>
		<g>
			<g>
				<line class="st2" x1="37.4" y1="77.8" x2="65.5" y2="77.8"/>
				<polygon class="st2" points="65.5,80.1 39.4,80.1 41.4,75.5 65.5,75.5 				"/>
			</g>
			<g>
				<g>
					<path class="st2" d="M83.6,52.5c0,4.1-2.5,7.2-6.5,8.2c4.9,0.8,7.9,4.4,7.9,9.3c0,6.3-5.1,10.1-13.4,10.1H55.3V43.3h16
						C78.9,43.3,83.6,46.7,83.6,52.5z M77.3,53.6c0-3-2.4-4.8-6.3-4.7h-9.5v9.7H71C74.9,58.5,77.3,56.7,77.3,53.6z M78.7,69.2
						c0-3.3-2.9-5.3-7.7-5.2h-9.5v10.5H71C75.8,74.6,78.7,72.6,78.7,69.2z"/>
					<path class="st2" d="M128.4,61.7c0,10.5-8.5,18.7-19.5,18.7c-11,0-19.5-8.1-19.5-18.7c0-10.6,8.5-18.6,19.5-18.6
						C119.9,43.1,128.4,51.2,128.4,61.7z M95.7,61.7c0,7.3,6,13.1,13.3,13.1S122,69,122,61.7s-5.9-13-13.1-13
						C101.7,48.7,95.7,54.4,95.7,61.7z"/>
					<path class="st2" d="M169.5,61.7c0,10.5-8.5,18.7-19.5,18.7s-19.5-8.1-19.5-18.7c0-10.6,8.5-18.6,19.5-18.6
						S169.5,51.2,169.5,61.7z M136.8,61.7c0,7.3,6,13.1,13.3,13.1c7.2,0,13.1-5.8,13.1-13.1s-5.9-13-13.1-13
						C142.8,48.7,136.8,54.4,136.8,61.7z"/>
					<path class="st2" d="M200.7,80.1l-12.1-16.2l-6.3,6.9v9.4h-6.2V43.3h6.2v19l17.6-19h7.3L192.9,59l15.2,21.1H200.7z"/>
				</g>
			</g>
			<g>
				<path class="st2" d="M39.3,80.1c-1.2,0-2.5-0.5-3.5-1.4l-8.3-7.3c-2.1-1.8-4.3-5.4-5-8L9.1,15.1c-0.5-1.7-0.2-3.4,0.6-5
					c0.9-1.5,2.3-2.6,3.9-3.1L26,3.6c1.7-0.5,3.4-0.2,5,0.6c1.5,0.9,2.6,2.3,3.1,3.9l10,36l-4.3,1.2l-10-36c-0.1-0.5-0.5-1-1-1.2
					c-0.5-0.3-1-0.3-1.5-0.2l-12.4,3.4c-0.5,0.1-1,0.5-1.2,1c-0.3,0.5-0.3,1-0.2,1.5l13.4,48.2c0.5,1.9,2.2,4.6,3.7,5.9l8.3,7.3
					c0.3,0.3,0.5,0.3,0.6,0.3c0,0,0.2-0.2,0.3-0.6L43,64.5c0.6-2,0.7-4.7,0.4-5.8c0,0-0.1-0.2-0.4-0.3c-0.5-0.2-1.1-0.2-1.8,0
					l-7.9,2.2l-1.2-4.3L40,54c1.6-0.4,3.2-0.4,4.5,0.1c1.6,0.6,2.8,1.8,3.2,3.3c0.6,2.1,0.4,5.7-0.5,8.4l-3.3,10.5
					c-0.6,1.8-1.8,3.1-3.4,3.5C40.1,80,39.7,80.1,39.3,80.1z"/>
			</g>
		</g>
	</g>
</g>
</svg>
